<svg width="15" height="15" viewBox="0 0 15 15" fill="none" xmlns="http://www.w3.org/2000/svg">
<path d="M7.71888 6.42325L7.7188 0.916486C7.71889 0.558204 7.42931 0.268627 7.07103 0.268711C6.71283 0.268711 6.42325 0.558289 6.42325 0.916487L6.42325 6.42333L0.916487 6.42325C0.558206 6.42334 0.268711 6.71283 0.268711 7.07103C0.268627 7.42931 0.558205 7.71889 0.916486 7.7188L6.42325 7.71888L6.42333 13.2256C6.42324 13.5839 6.71282 13.8735 7.0711 13.8734C7.2497 13.8735 7.41194 13.801 7.52921 13.6838C7.64649 13.5665 7.71888 13.4043 7.71888 13.2256L7.7188 7.71888L13.2256 7.71888C13.4043 7.71888 13.5665 7.64648 13.6838 7.52921C13.801 7.41194 13.8734 7.24978 13.8734 7.0711C13.8735 6.71282 13.5839 6.42324 13.2256 6.42333L7.71888 6.42325Z" fill="#595959" fill-opacity="0.3"/>
</svg>
