<svg width="9" height="13" viewBox="0 0 9 13" fill="none" xmlns="http://www.w3.org/2000/svg">
<path d="M4.36266 2.65297L2.72203 1.01235C2.53922 0.829299 2.24203 0.829299 2.05922 1.01235L0.418596 2.65297C0.235549 2.83602 0.235549 3.13274 0.418596 3.31578C0.601409 3.49883 0.898596 3.49883 1.08141 3.31578L1.92188 2.47531V11.6563C1.92188 11.915 2.13188 12.125 2.39063 12.125C2.64938 12.125 2.85938 11.915 2.85938 11.6563V2.47531L3.69985 3.31578C3.79125 3.40742 3.91125 3.45313 4.03125 3.45313C4.15125 3.45313 4.27125 3.40742 4.36266 3.31578C4.54571 3.13274 4.54571 2.83602 4.36266 2.65297V2.65297Z" fill="#595959" fill-opacity="0.5"/>
<path d="M8.5814 9.68422C8.39836 9.50117 8.10164 9.50117 7.91859 9.68422L7.07812 10.5247V1.34375C7.07812 1.085 6.86812 0.875 6.60937 0.875C6.35062 0.875 6.14062 1.085 6.14062 1.34375V10.5247L5.30016 9.68422C5.11711 9.50117 4.82016 9.50117 4.63735 9.68422C4.4543 9.86727 4.4543 10.164 4.63735 10.347L6.27797 11.9877C6.36961 12.0793 6.48937 12.125 6.60937 12.125C6.72937 12.125 6.84914 12.0793 6.94078 11.9877L8.5814 10.347C8.76445 10.164 8.76445 9.86727 8.5814 9.68422Z" fill="#595959" fill-opacity="0.5"/>
</svg>
