<svg width="25" height="25" viewBox="0 0 25 25" fill="none" xmlns="http://www.w3.org/2000/svg">
<path d="M23.2954 10.2273H14.7727V1.70455C14.7727 0.763633 14.009 0 13.0681 0H11.9318C10.9909 0 10.2273 0.763633 10.2273 1.70455V10.2273H1.70455C0.763633 10.2273 0 10.9909 0 11.9318V13.0681C0 14.009 0.763633 14.7727 1.70455 14.7727H10.2273V23.2954C10.2273 24.2363 10.9909 24.9999 11.9318 24.9999H13.0681C14.009 24.9999 14.7727 24.2363 14.7727 23.2954V14.7727H23.2954C24.2363 14.7727 24.9999 14.009 24.9999 13.0681V11.9318C24.9999 10.9909 24.2363 10.2273 23.2954 10.2273Z" fill="#595959"/>
</svg>
