<svg width="35" height="35" viewBox="0 0 35 35" fill="none" xmlns="http://www.w3.org/2000/svg">
<path d="M14.0132 27.6859L11.0667 35L8.13908 27.7343L8.12018 27.6859C8.13628 27.6889 8.1517 27.6904 8.16781 27.6919C9.13092 27.7972 10.0985 27.8499 11.0667 27.8498C12.0509 27.8501 13.0344 27.7955 14.0132 27.6859V27.6859Z" fill="#529DDF"/>
<path d="M19.8474 26.3557L18.4252 34.1613L14.0888 27.6777C16.047 27.4555 17.9773 27.0123 19.8474 26.3557V26.3557Z" fill="#7AB355"/>
<path d="M25.4498 31.6833L19.9244 26.3289C21.7926 25.6674 23.5894 24.7966 25.2845 23.731L25.4498 31.6833Z" fill="#E04446"/>
<path d="M8.16779 27.6919L8.13907 27.7343L3.85797 34.1956L2.40363 26.3974C4.26126 27.0394 6.17737 27.4713 8.12016 27.6859C8.13627 27.6889 8.15168 27.6904 8.16779 27.6919Z" fill="#F0E168"/>
<path d="M11.0668 28.4457C10.0807 28.4456 9.09525 28.392 8.11431 28.2851C8.09188 28.2829 8.07027 28.2804 8.04825 28.2771C6.0712 28.0571 4.1213 27.617 2.2306 26.9641C1.55193 26.7296 0.872226 26.4639 0.21051 26.1746L0.63652 25.0724C1.27211 25.3503 1.92494 25.6054 2.57681 25.8308C4.39714 26.4594 6.2746 26.8826 8.17818 27.0933C8.18823 27.0944 8.19828 27.0958 8.20826 27.0975L8.21743 27.0984C8.21996 27.0986 8.22269 27.0989 8.22515 27.0992C9.16926 27.2022 10.1177 27.2539 11.0668 27.254C12.0313 27.2541 12.9952 27.2005 13.9545 27.0934C13.9639 27.0924 13.9734 27.0916 13.9828 27.091C13.9921 27.0905 14.0014 27.0891 14.0107 27.0877C14.0169 27.0868 14.0231 27.086 14.0293 27.0852C15.9479 26.867 17.8393 26.4328 19.6718 25.7899C19.6773 25.788 19.6828 25.7862 19.6883 25.7844C19.7054 25.779 19.7219 25.7731 19.7389 25.7667C19.7418 25.7656 19.7448 25.7646 19.7476 25.7636C21.578 25.115 23.3385 24.2618 24.9996 23.218C27.8633 21.4218 30.3967 19.0876 32.4767 16.3289L33.3501 17.0754C31.1856 19.946 28.5493 22.375 25.5693 24.2442C23.8412 25.33 22.0097 26.2178 20.1056 26.8928C20.0753 26.904 20.0457 26.9144 20.0155 26.9241C18.1128 27.5911 16.1489 28.042 14.1569 28.2692C14.1228 28.2742 14.0908 28.2777 14.06 28.2798C13.0656 28.3905 12.0665 28.4458 11.0668 28.4457V28.4457Z" fill="#BA8B5D"/>
<path d="M29.1378 18.1523L26.1913 25.4664L23.2448 18.1523C24.2236 18.2619 25.2071 18.3166 26.1913 18.3162C27.1755 18.3166 28.159 18.2619 29.1378 18.1523V18.1523Z" fill="#7AB355"/>
<path d="M22.8177 18.1017L18.4308 24.5473L17.064 16.6977C18.9295 17.3822 20.8583 17.8528 22.8177 18.1017V18.1017Z" fill="#529DDF"/>
<path d="M16.6831 16.5547L11.0506 21.8362L11.3426 13.7892C13.0249 14.9112 14.8152 15.8383 16.6831 16.5547V16.5547Z" fill="#E04446"/>
<path d="M35 16.8124L33.547 24.6419L29.2316 18.1419C31.1934 17.918 33.1271 17.4723 35 16.8124V16.8124Z" fill="#F0E168"/>
<path d="M26.1913 18.9121C25.1875 18.9122 24.1844 18.8564 23.186 18.7449C23.0506 18.7308 22.9063 18.7137 22.7492 18.6932C20.751 18.4386 18.784 17.9585 16.8814 17.261C16.7523 17.2143 16.6217 17.1651 16.4911 17.1145C14.5865 16.3834 12.7608 15.4379 11.045 14.2941C8.62198 12.6795 6.43957 10.6886 4.57026 8.38724C2.69104 6.07705 1.15028 3.47849 0 0.679294L1.02666 0.202148C3.24036 5.60346 6.94069 10.1646 11.64 13.2843C13.2886 14.3833 15.0429 15.2918 16.8731 15.9942C16.998 16.0427 17.1209 16.0889 17.2445 16.1336C19.0731 16.8041 20.9637 17.2656 22.8843 17.5101C23.0341 17.5297 23.1693 17.5457 23.2995 17.5594C25.2208 17.773 27.1577 17.7732 29.079 17.5598C29.0861 17.559 29.0932 17.5583 29.1002 17.5578C29.1191 17.5565 29.138 17.5542 29.1564 17.5515C29.1615 17.5508 29.1666 17.5501 29.1718 17.5495C30.3871 17.4103 31.5924 17.1846 32.7794 16.874L33.0474 18.031C31.8139 18.3539 30.5615 18.5886 29.2986 18.7336C29.2619 18.7388 29.2245 18.7431 29.1871 18.746C28.1919 18.8568 27.192 18.9122 26.1913 18.9121V18.9121Z" fill="#9F764A"/>
<path d="M14.5734 8.02292L11.6269 15.337L8.68036 8.02292C9.65915 8.13246 10.6427 8.18715 11.6269 8.18677C12.6111 8.18715 13.5946 8.13246 14.5734 8.02292V8.02292Z" fill="#7AB355"/>
<path d="M20.388 6.7001L18.9602 14.5043L14.628 8.01693C16.5864 7.79607 18.5172 7.35465 20.388 6.7001V6.7001Z" fill="#529DDF"/>
<path d="M25.963 12.0427L20.4453 6.67927C22.3143 6.02076 24.1123 5.1529 25.809 4.0903L25.963 12.0427Z" fill="#F0E168"/>
<path d="M32.3196 8.06387L25.8594 4.05901C27.5548 2.99277 29.14 1.73953 30.5886 0.320038L32.3196 8.06387Z" fill="#7AB355"/>
<path d="M8.27701 7.97521L3.86917 14.4037L2.53387 6.58093C4.39634 7.26105 6.32156 7.72844 8.27701 7.97521V7.97521Z" fill="#E04446"/>
<path d="M11.6269 8.78262C10.6231 8.78276 9.61995 8.72697 8.62161 8.61547C8.47295 8.59983 8.33619 8.58368 8.20722 8.56644C6.2137 8.31412 4.25097 7.83745 2.35203 7.14446C1.62734 6.88014 0.902988 6.58025 0.199219 6.25323L0.647792 5.16118C1.32373 5.47532 2.01943 5.76336 2.71568 6.01727C4.54079 6.68323 6.42722 7.14122 8.34323 7.38354C8.46598 7.39998 8.59303 7.41496 8.73539 7.42995C10.6566 7.64355 12.5934 7.64367 14.5146 7.43031C14.5242 7.42922 14.5338 7.42842 14.5434 7.42791C14.5515 7.4266 14.561 7.42529 14.5688 7.42442C16.4878 7.20746 18.3797 6.77493 20.2129 6.13409L20.2198 6.13169C20.2302 6.12805 20.2409 6.12441 20.2512 6.12034C20.2572 6.11801 20.2632 6.11576 20.2693 6.11358C22.1005 5.46795 23.8622 4.6176 25.5249 3.57677C25.5307 3.57314 25.5367 3.56957 25.5426 3.56616L25.5779 3.5439C27.1907 2.52897 28.7018 1.34152 30.0877 0L30.8418 0.881412C29.3983 2.27852 27.8243 3.51512 26.1444 4.57195L26.1293 4.58155C26.115 4.59064 26.1007 4.59959 26.0864 4.60802C24.3597 5.68826 22.5305 6.57121 20.6292 7.24215C20.6103 7.24942 20.591 7.25626 20.572 7.26295L20.5645 7.26557C18.6591 7.93174 16.6929 8.38179 14.6985 8.60819C14.6704 8.61241 14.6437 8.61532 14.6176 8.61707C13.6241 8.72748 12.6258 8.78274 11.6269 8.78262V8.78262Z" fill="#BA8B5D"/>
</svg>
