<svg width="10" height="10" viewBox="0 0 10 10" fill="none" xmlns="http://www.w3.org/2000/svg">
<path d="M3.37096 0.90909C3.37096 0.610987 3.60361 0.39312 3.90172 0.39312H6.08355C6.38156 0.39312 6.61421 0.610987 6.61421 0.90909V1.4742H7.00733V0.90909C7.00733 0.394272 6.59837 0 6.08355 0H3.90172C3.3869 0 2.97784 0.394272 2.97784 0.90909V1.4742H3.37096V0.90909Z" fill="black"/>
<path d="M2.66832 9.99999H7.31695C7.76516 9.99999 8.11298 9.60572 8.11298 9.11547V3.04668H1.87219V9.11547C1.87219 9.60572 2.22001 9.99999 2.66832 9.99999V9.99999ZM6.24566 3.98523C6.24566 3.87668 6.33367 3.78867 6.44222 3.78867C6.55077 3.78867 6.63878 3.87668 6.63878 3.98523V8.62897C6.63878 8.73752 6.55077 8.82553 6.44222 8.82553C6.33367 8.82553 6.24566 8.73752 6.24566 8.62897V3.98523ZM4.79602 3.98523C4.79602 3.87668 4.88404 3.78867 4.99259 3.78867C5.10113 3.78867 5.18915 3.87668 5.18915 3.98523V8.62897C5.18915 8.73752 5.10113 8.82553 4.99259 8.82553C4.88404 8.82553 4.79602 8.73752 4.79602 8.62897V3.98523ZM3.34639 3.98523C3.34639 3.87668 3.4344 3.78867 3.54295 3.78867C3.6515 3.78867 3.73951 3.87668 3.73951 3.98523V8.62897C3.73951 8.73752 3.6515 8.82553 3.54295 8.82553C3.4344 8.82553 3.34639 8.73752 3.34639 8.62897V3.98523Z" fill="black"/>
<path d="M1.67078 2.65356H8.31448C8.5859 2.65356 8.80588 2.43358 8.80588 2.16216C8.80588 1.89074 8.5859 1.67076 8.31448 1.67076H1.67078C1.39936 1.67076 1.17938 1.89074 1.17938 2.16216C1.17938 2.43358 1.39936 2.65356 1.67078 2.65356Z" fill="black"/>
</svg>
