<svg width="36" height="36" viewBox="0 0 36 36" fill="none" xmlns="http://www.w3.org/2000/svg">
<path d="M23.7041 8.43706L17.6776 14.4635L11.6511 8.43706C10.9858 7.77174 9.90588 7.77174 9.24055 8.43706L8.43707 9.24054C7.77174 9.90587 7.77174 10.9858 8.43707 11.6511L14.4635 17.6776L8.43707 23.7041C7.77174 24.3694 7.77174 25.4494 8.43707 26.1147L9.24055 26.9182C9.90588 27.5835 10.9858 27.5835 11.6511 26.9182L17.6776 20.8917L23.7041 26.9182C24.3694 27.5835 25.4494 27.5835 26.1147 26.9182L26.9182 26.1147C27.5835 25.4494 27.5835 24.3694 26.9182 23.7041L20.8917 17.6776L26.9182 11.6511C27.5835 10.9858 27.5835 9.90587 26.9182 9.24054L26.1147 8.43706C25.4494 7.77174 24.3694 7.77174 23.7041 8.43706Z" fill="#595959"/>
</svg>
