<svg width="30" height="29" viewBox="0 0 30 29" fill="none" xmlns="http://www.w3.org/2000/svg">
<path d="M29.9218 10.8642C29.7254 10.2567 29.1866 9.82523 28.5492 9.76778L19.8903 8.98155L16.4664 0.967508C16.2139 0.380183 15.639 0 15.0002 0C14.3613 0 13.7864 0.380183 13.5339 0.968882L10.11 8.98155L1.44977 9.76778C0.813463 9.82661 0.276035 10.2567 0.0785047 10.8642C-0.119025 11.4716 0.0633981 12.1379 0.544749 12.5579L7.08979 18.298L5.15981 26.7995C5.01859 27.4246 5.26121 28.0708 5.77987 28.4457C6.05865 28.6471 6.38482 28.7497 6.71373 28.7497C6.99732 28.7497 7.27863 28.6732 7.53109 28.5222L15.0002 24.0582L22.4665 28.5222C23.0128 28.8508 23.7015 28.8209 24.2191 28.4457C24.738 28.0696 24.9803 27.4233 24.8391 26.7995L22.9091 18.298L29.4542 12.5591C29.9355 12.1379 30.1193 11.4728 29.9218 10.8642Z" fill="#FFC107"/>
</svg>
